# xmcd
#
# Track frame offsets: 
#        225
#        9361
#        22919
#        35944
#        48479
#        59794
#        76048
#        83296
#        99611
#        109507
#        120007
#        129078
#        142372
#        160521
#        180267
#
# Disc length: 2577 seconds
#
# Revision: 0
# Processed by: cddbd v1.5PL3 Copyright (c) Steve Scherf et al.
# Submitted via: ExactAudioCopy v0.95a5
#
DISCID=aa0a0e0f
DTITLE=Johnny Gordon - Blacksmith Blues
DYEAR=1900
DGENRE=Blues
TTITLE0=bourbon st parade
TTITLE1=im a woman
TTITLE2=st james infirmary
TTITLE3=thats life
TTITLE4=just a gigolo
TTITLE5=after hours blues
TTITLE6=personality
TTITLE7=fever
TTITLE8=what a wonderful world
TTITLE9=come to the mardi gras
TTITLE10=big spender
TTITLE11=house of the rising sun
TTITLE12=just a closer walk with thee
TTITLE13=do you know what it means to miss new orleans
TTITLE14=unknown title
EXTD=
EXTT0=
EXTT1=
EXTT2=
EXTT3=
EXTT4=
EXTT5=
EXTT6=
EXTT7=
EXTT8=
EXTT9=
EXTT10=
EXTT11=
EXTT12=
EXTT13=
EXTT14=
PLAYORDER=
